<?xml version="1.0" standalone="no"?><!DOCTYPE svg PUBLIC "-//W3C//DTD SVG 1.1//EN" "http://www.w3.org/Graphics/SVG/1.1/DTD/svg11.dtd"><svg t="1729842266623" class="icon" viewBox="0 0 1024 1024" version="1.1" xmlns="http://www.w3.org/2000/svg" p-id="17401" xmlns:xlink="http://www.w3.org/1999/xlink" width="200" height="200"><path d="M926.464 438.8352h48.7936v48.7936h-48.7936zM926.464 390.0928h48.7936v48.7424h-48.7936zM877.7216 487.6288h48.7424v48.7424h-48.7424z" fill="#012777" p-id="17402"></path><path d="M877.7216 438.8352h48.7424v48.7936h-48.7424z" fill="#375AA4" p-id="17403"></path><path d="M877.7216 390.0928h48.7424v48.7424h-48.7424z" fill="#A2D8EA" p-id="17404"></path><path d="M877.7216 341.3504h48.7424v48.7424h-48.7424zM828.928 877.7216h48.7936v48.7424h-48.7936zM828.928 828.928h48.7936v48.7936h-48.7936zM828.928 780.1856h48.7936v48.7424h-48.7936z" fill="#012777" p-id="17405"></path><path d="M828.928 731.4432h48.7936v48.7424h-48.7936zM828.928 682.6496h48.7936v48.7936h-48.7936zM828.928 633.9072h48.7936v48.7424h-48.7936zM828.928 585.1648h48.7936v48.7424h-48.7936zM828.928 438.8352h48.7936v48.7936h-48.7936z" fill="#012777" p-id="17406"></path><path d="M828.928 390.0928h48.7936v48.7424h-48.7936z" fill="#375AA4" p-id="17407"></path><path d="M828.928 341.3504h48.7936v48.7424h-48.7936z" fill="#A2D8EA" p-id="17408"></path><path d="M828.928 292.5568h48.7936v48.7936h-48.7936zM828.928 243.8144h48.7936v48.7424h-48.7936z" fill="#012777" p-id="17409"></path><path d="M828.928 195.072h48.7936v48.7424h-48.7936zM828.928 146.2784h48.7936v48.7936h-48.7936zM780.1856 926.464h48.7424v48.7936h-48.7424z" fill="#012777" p-id="17410"></path><path d="M780.1856 877.7216h48.7424v48.7424h-48.7424zM780.1856 828.928h48.7424v48.7936h-48.7424zM780.1856 780.1856h48.7424v48.7424h-48.7424z" fill="#DEE6FC" p-id="17411"></path><path d="M780.1856 731.4432h48.7424v48.7424h-48.7424zM780.1856 682.6496h48.7424v48.7936h-48.7424zM780.1856 633.9072h48.7424v48.7424h-48.7424zM780.1856 585.1648h48.7424v48.7424h-48.7424z" fill="#DEE6FC" p-id="17412"></path><path d="M780.1856 536.3712h48.7424v48.7936h-48.7424zM780.1856 390.0928h48.7424v48.7424h-48.7424z" fill="#012777" p-id="17413"></path><path d="M780.1856 341.3504h48.7424v48.7424h-48.7424zM780.1856 292.5568h48.7424v48.7936h-48.7424zM780.1856 243.8144h48.7424v48.7424h-48.7424z" fill="#375AA4" p-id="17414"></path><path d="M780.1856 195.072h48.7424v48.7424h-48.7424z" fill="#375AA4" p-id="17415"></path><path d="M780.1856 146.2784h48.7424v48.7936h-48.7424z" fill="#A2D8EA" p-id="17416"></path><path d="M780.1856 97.536h48.7424v48.7424h-48.7424zM731.4432 926.464h48.7424v48.7936h-48.7424z" fill="#012777" p-id="17417"></path><path d="M731.4432 877.7216h48.7424v48.7424h-48.7424z" fill="#DEE6FC" p-id="17418"></path><path d="M731.4432 828.928h48.7424v48.7936h-48.7424zM731.4432 780.1856h48.7424v48.7424h-48.7424z" fill="#DD75A1" p-id="17419"></path><path d="M731.4432 731.4432h48.7424v48.7424h-48.7424z" fill="#DD75A1" p-id="17420"></path><path d="M731.4432 682.6496h48.7424v48.7936h-48.7424zM731.4432 633.9072h48.7424v48.7424h-48.7424z" fill="#012777" p-id="17421"></path><path d="M731.4432 585.1648h48.7424v48.7424h-48.7424z" fill="#DD75A1" p-id="17422"></path><path d="M731.4432 536.3712h48.7424v48.7936h-48.7424z" fill="#DEE6FC" p-id="17423"></path><path d="M731.4432 487.6288h48.7424v48.7424h-48.7424zM731.4432 341.3504h48.7424v48.7424h-48.7424z" fill="#012777" p-id="17424"></path><path d="M731.4432 292.5568h48.7424v48.7936h-48.7424z" fill="#375AA4" p-id="17425"></path><path d="M731.4432 243.8144h48.7424v48.7424h-48.7424z" fill="#A2D8EA" p-id="17426"></path><path d="M731.4432 195.072h48.7424v48.7424h-48.7424zM731.4432 146.2784h48.7424v48.7936h-48.7424z" fill="#A2D8EA" p-id="17427"></path><path d="M731.4432 97.536h48.7424v48.7424h-48.7424zM682.6496 926.464h48.7936v48.7936h-48.7936z" fill="#012777" p-id="17428"></path><path d="M682.6496 877.7216h48.7936v48.7424h-48.7936z" fill="#DEE6FC" p-id="17429"></path><path d="M682.6496 828.928h48.7936v48.7936h-48.7936zM682.6496 780.1856h48.7936v48.7424h-48.7936z" fill="#DD75A1" p-id="17430"></path><path d="M682.6496 731.4432h48.7936v48.7424h-48.7936z" fill="#012777" p-id="17431"></path><path d="M682.6496 682.6496h48.7936v48.7936h-48.7936zM682.6496 633.9072h48.7936v48.7424h-48.7936z" fill="#375AA4" p-id="17432"></path><path d="M682.6496 585.1648h48.7936v48.7424h-48.7936z" fill="#012777" p-id="17433"></path><path d="M682.6496 536.3712h48.7936v48.7936h-48.7936z" fill="#DD75A1" p-id="17434"></path><path d="M682.6496 487.6288h48.7936v48.7424h-48.7936z" fill="#DEE6FC" p-id="17435"></path><path d="M682.6496 438.8352h48.7936v48.7936h-48.7936zM682.6496 292.5568h48.7936v48.7936h-48.7936z" fill="#012777" p-id="17436"></path><path d="M682.6496 243.8144h48.7936v48.7424h-48.7936z" fill="#375AA4" p-id="17437"></path><path d="M682.6496 195.072h48.7936v48.7424h-48.7936z" fill="#A2D8EA" p-id="17438"></path><path d="M682.6496 146.2784h48.7936v48.7936h-48.7936zM633.9072 926.464h48.7424v48.7936h-48.7424z" fill="#012777" p-id="17439"></path><path d="M633.9072 877.7216h48.7424v48.7424h-48.7424z" fill="#DEE6FC" p-id="17440"></path><path d="M633.9072 828.928h48.7424v48.7936h-48.7424zM633.9072 780.1856h48.7424v48.7424h-48.7424z" fill="#DD75A1" p-id="17441"></path><path d="M633.9072 731.4432h48.7424v48.7424h-48.7424z" fill="#012777" p-id="17442"></path><path d="M633.9072 682.6496h48.7424v48.7936h-48.7424zM633.9072 633.9072h48.7424v48.7424h-48.7424z" fill="#A2D8EA" p-id="17443"></path><path d="M633.9072 585.1648h48.7424v48.7424h-48.7424z" fill="#012777" p-id="17444"></path><path d="M633.9072 536.3712h48.7424v48.7936h-48.7424zM633.9072 487.6288h48.7424v48.7424h-48.7424z" fill="#DD75A1" p-id="17445"></path><path d="M633.9072 438.8352h48.7424v48.7936h-48.7424z" fill="#DEE6FC" p-id="17446"></path><path d="M633.9072 390.0928h48.7424v48.7424h-48.7424zM633.9072 243.8144h48.7424v48.7424h-48.7424z" fill="#012777" p-id="17447"></path><path d="M633.9072 195.072h48.7424v48.7424h-48.7424z" fill="#375AA4" p-id="17448"></path><path d="M633.9072 146.2784h48.7424v48.7936h-48.7424z" fill="#A2D8EA" p-id="17449"></path><path d="M633.9072 97.536h48.7424v48.7424h-48.7424zM585.1648 926.464h48.7424v48.7936h-48.7424z" fill="#012777" p-id="17450"></path><path d="M585.1648 877.7216h48.7424v48.7424h-48.7424z" fill="#DEE6FC" p-id="17451"></path><path d="M585.1648 828.928h48.7424v48.7936h-48.7424zM585.1648 780.1856h48.7424v48.7424h-48.7424z" fill="#DD75A1" p-id="17452"></path><path d="M585.1648 731.4432h48.7424v48.7424h-48.7424z" fill="#DD75A1" p-id="17453"></path><path d="M585.1648 682.6496h48.7424v48.7936h-48.7424zM585.1648 633.9072h48.7424v48.7424h-48.7424z" fill="#012777" p-id="17454"></path><path d="M585.1648 585.1648h48.7424v48.7424h-48.7424zM585.1648 536.3712h48.7424v48.7936h-48.7424zM585.1648 487.6288h48.7424v48.7424h-48.7424zM585.1648 438.8352h48.7424v48.7936h-48.7424z" fill="#DD75A1" p-id="17455"></path><path d="M585.1648 390.0928h48.7424v48.7424h-48.7424z" fill="#DEE6FC" p-id="17456"></path><path d="M585.1648 341.3504h48.7424v48.7424h-48.7424zM585.1648 195.072h48.7424v48.7424h-48.7424z" fill="#012777" p-id="17457"></path><path d="M585.1648 146.2784h48.7424v48.7936h-48.7424z" fill="#375AA4" p-id="17458"></path><path d="M585.1648 97.536h48.7424v48.7424h-48.7424z" fill="#A2D8EA" p-id="17459"></path><path d="M585.1648 48.7424h48.7424v48.7936h-48.7424zM536.3712 926.464h48.7936v48.7936h-48.7936z" fill="#012777" p-id="17460"></path><path d="M536.3712 877.7216h48.7936v48.7424h-48.7936z" fill="#DEE6FC" p-id="17461"></path><path d="M536.3712 828.928h48.7936v48.7936h-48.7936zM536.3712 780.1856h48.7936v48.7424h-48.7936z" fill="#DD75A1" p-id="17462"></path><path d="M536.3712 731.4432h48.7936v48.7424h-48.7936zM536.3712 682.6496h48.7936v48.7936h-48.7936zM536.3712 633.9072h48.7936v48.7424h-48.7936zM536.3712 585.1648h48.7936v48.7424h-48.7936zM536.3712 536.3712h48.7936v48.7936h-48.7936zM536.3712 487.6288h48.7936v48.7424h-48.7936zM536.3712 438.8352h48.7936v48.7936h-48.7936zM536.3712 390.0928h48.7936v48.7424h-48.7936z" fill="#DD75A1" p-id="17463"></path><path d="M536.3712 341.3504h48.7936v48.7424h-48.7936z" fill="#DEE6FC" p-id="17464"></path><path d="M536.3712 292.5568h48.7936v48.7936h-48.7936zM536.3712 195.072h48.7936v48.7424h-48.7936z" fill="#012777" p-id="17465"></path><path d="M536.3712 146.2784h48.7936v48.7936h-48.7936z" fill="#375AA4" p-id="17466"></path><path d="M536.3712 97.536h48.7936v48.7424h-48.7936z" fill="#A2D8EA" p-id="17467"></path><path d="M536.3712 48.7424h48.7936v48.7936h-48.7936zM487.6288 926.464h48.7424v48.7936h-48.7424z" fill="#012777" p-id="17468"></path><path d="M487.6288 877.7216h48.7424v48.7424h-48.7424z" fill="#DEE6FC" p-id="17469"></path><path d="M487.6288 828.928h48.7424v48.7936h-48.7424zM487.6288 780.1856h48.7424v48.7424h-48.7424z" fill="#012777" p-id="17470"></path><path d="M487.6288 731.4432h48.7424v48.7424h-48.7424zM487.6288 682.6496h48.7424v48.7936h-48.7424zM487.6288 633.9072h48.7424v48.7424h-48.7424z" fill="#012777" p-id="17471"></path><path d="M487.6288 585.1648h48.7424v48.7424h-48.7424zM487.6288 536.3712h48.7424v48.7936h-48.7424zM487.6288 487.6288h48.7424v48.7424h-48.7424zM487.6288 438.8352h48.7424v48.7936h-48.7424zM487.6288 390.0928h48.7424v48.7424h-48.7424z" fill="#DD75A1" p-id="17472"></path><path d="M487.6288 341.3504h48.7424v48.7424h-48.7424z" fill="#DEE6FC" p-id="17473"></path><path d="M487.6288 292.5568h48.7424v48.7936h-48.7424zM487.6288 195.072h48.7424v48.7424h-48.7424z" fill="#012777" p-id="17474"></path><path d="M487.6288 146.2784h48.7424v48.7936h-48.7424z" fill="#375AA4" p-id="17475"></path><path d="M487.6288 97.536h48.7424v48.7424h-48.7424z" fill="#A2D8EA" p-id="17476"></path><path d="M487.6288 48.7424h48.7424v48.7936h-48.7424zM438.8352 926.464h48.7936v48.7936h-48.7936z" fill="#012777" p-id="17477"></path><path d="M438.8352 877.7216h48.7936v48.7424h-48.7936z" fill="#DEE6FC" p-id="17478"></path><path d="M438.8352 828.928h48.7936v48.7936h-48.7936z" fill="#012777" p-id="17479"></path><path d="M438.8352 780.1856h48.7936v48.7424h-48.7936z" fill="#375AA4" p-id="17480"></path><path d="M438.8352 731.4432h48.7936v48.7424h-48.7936zM438.8352 682.6496h48.7936v48.7936h-48.7936zM438.8352 633.9072h48.7936v48.7424h-48.7936z" fill="#375AA4" p-id="17481"></path><path d="M438.8352 585.1648h48.7936v48.7424h-48.7936z" fill="#012777" p-id="17482"></path><path d="M438.8352 536.3712h48.7936v48.7936h-48.7936zM438.8352 487.6288h48.7936v48.7424h-48.7936zM438.8352 438.8352h48.7936v48.7936h-48.7936zM438.8352 390.0928h48.7936v48.7424h-48.7936z" fill="#DD75A1" p-id="17483"></path><path d="M438.8352 341.3504h48.7936v48.7424h-48.7936z" fill="#DEE6FC" p-id="17484"></path><path d="M438.8352 292.5568h48.7936v48.7936h-48.7936zM438.8352 195.072h48.7936v48.7424h-48.7936z" fill="#012777" p-id="17485"></path><path d="M438.8352 146.2784h48.7936v48.7936h-48.7936z" fill="#375AA4" p-id="17486"></path><path d="M438.8352 97.536h48.7936v48.7424h-48.7936z" fill="#A2D8EA" p-id="17487"></path><path d="M438.8352 48.7424h48.7936v48.7936h-48.7936zM390.0928 926.464h48.7424v48.7936h-48.7424z" fill="#012777" p-id="17488"></path><path d="M390.0928 877.7216h48.7424v48.7424h-48.7424z" fill="#DEE6FC" p-id="17489"></path><path d="M390.0928 828.928h48.7424v48.7936h-48.7424z" fill="#012777" p-id="17490"></path><path d="M390.0928 780.1856h48.7424v48.7424h-48.7424z" fill="#375AA4" p-id="17491"></path><path d="M390.0928 731.4432h48.7424v48.7424h-48.7424zM390.0928 682.6496h48.7424v48.7936h-48.7424z" fill="#375AA4" p-id="17492"></path><path d="M390.0928 633.9072h48.7424v48.7424h-48.7424zM390.0928 585.1648h48.7424v48.7424h-48.7424z" fill="#A2D8EA" p-id="17493"></path><path d="M390.0928 536.3712h48.7424v48.7936h-48.7424z" fill="#012777" p-id="17494"></path><path d="M390.0928 487.6288h48.7424v48.7424h-48.7424zM390.0928 438.8352h48.7424v48.7936h-48.7424z" fill="#DD75A1" p-id="17495"></path><path d="M390.0928 390.0928h48.7424v48.7424h-48.7424z" fill="#DEE6FC" p-id="17496"></path><path d="M390.0928 341.3504h48.7424v48.7424h-48.7424zM390.0928 195.072h48.7424v48.7424h-48.7424z" fill="#012777" p-id="17497"></path><path d="M390.0928 146.2784h48.7424v48.7936h-48.7424z" fill="#375AA4" p-id="17498"></path><path d="M390.0928 97.536h48.7424v48.7424h-48.7424z" fill="#A2D8EA" p-id="17499"></path><path d="M390.0928 48.7424h48.7424v48.7936h-48.7424zM341.3504 926.464h48.7424v48.7936h-48.7424z" fill="#012777" p-id="17500"></path><path d="M341.3504 877.7216h48.7424v48.7424h-48.7424z" fill="#DEE6FC" p-id="17501"></path><path d="M341.3504 828.928h48.7424v48.7936h-48.7424z" fill="#012777" p-id="17502"></path><path d="M341.3504 780.1856h48.7424v48.7424h-48.7424z" fill="#375AA4" p-id="17503"></path><path d="M341.3504 731.4432h48.7424v48.7424h-48.7424z" fill="#375AA4" p-id="17504"></path><path d="M341.3504 682.6496h48.7424v48.7936h-48.7424zM341.3504 633.9072h48.7424v48.7424h-48.7424zM341.3504 585.1648h48.7424v48.7424h-48.7424z" fill="#A2D8EA" p-id="17505"></path><path d="M341.3504 536.3712h48.7424v48.7936h-48.7424z" fill="#012777" p-id="17506"></path><path d="M341.3504 487.6288h48.7424v48.7424h-48.7424z" fill="#DD75A1" p-id="17507"></path><path d="M341.3504 438.8352h48.7424v48.7936h-48.7424z" fill="#DEE6FC" p-id="17508"></path><path d="M341.3504 390.0928h48.7424v48.7424h-48.7424zM341.3504 243.8144h48.7424v48.7424h-48.7424z" fill="#012777" p-id="17509"></path><path d="M341.3504 195.072h48.7424v48.7424h-48.7424z" fill="#375AA4" p-id="17510"></path><path d="M341.3504 146.2784h48.7424v48.7936h-48.7424z" fill="#A2D8EA" p-id="17511"></path><path d="M341.3504 97.536h48.7424v48.7424h-48.7424zM292.5568 926.464h48.7936v48.7936h-48.7936z" fill="#012777" p-id="17512"></path><path d="M292.5568 877.7216h48.7936v48.7424h-48.7936z" fill="#DEE6FC" p-id="17513"></path><path d="M292.5568 828.928h48.7936v48.7936h-48.7936z" fill="#012777" p-id="17514"></path><path d="M292.5568 780.1856h48.7936v48.7424h-48.7936z" fill="#375AA4" p-id="17515"></path><path d="M292.5568 731.4432h48.7936v48.7424h-48.7936zM292.5568 682.6496h48.7936v48.7936h-48.7936zM292.5568 633.9072h48.7936v48.7424h-48.7936z" fill="#A2D8EA" p-id="17516"></path><path d="M292.5568 585.1648h48.7936v48.7424h-48.7936z" fill="#012777" p-id="17517"></path><path d="M292.5568 536.3712h48.7936v48.7936h-48.7936z" fill="#DD75A1" p-id="17518"></path><path d="M292.5568 487.6288h48.7936v48.7424h-48.7936z" fill="#DEE6FC" p-id="17519"></path><path d="M292.5568 438.8352h48.7936v48.7936h-48.7936zM292.5568 292.5568h48.7936v48.7936h-48.7936z" fill="#012777" p-id="17520"></path><path d="M292.5568 243.8144h48.7936v48.7424h-48.7936z" fill="#375AA4" p-id="17521"></path><path d="M292.5568 195.072h48.7936v48.7424h-48.7936z" fill="#A2D8EA" p-id="17522"></path><path d="M292.5568 146.2784h48.7936v48.7936h-48.7936zM243.8144 926.464h48.7424v48.7936h-48.7424z" fill="#012777" p-id="17523"></path><path d="M243.8144 877.7216h48.7424v48.7424h-48.7424z" fill="#DEE6FC" p-id="17524"></path><path d="M243.8144 828.928h48.7424v48.7936h-48.7424zM243.8144 780.1856h48.7424v48.7424h-48.7424z" fill="#012777" p-id="17525"></path><path d="M243.8144 731.4432h48.7424v48.7424h-48.7424zM243.8144 682.6496h48.7424v48.7936h-48.7424zM243.8144 633.9072h48.7424v48.7424h-48.7424z" fill="#012777" p-id="17526"></path><path d="M243.8144 585.1648h48.7424v48.7424h-48.7424z" fill="#DD75A1" p-id="17527"></path><path d="M243.8144 536.3712h48.7424v48.7936h-48.7424z" fill="#DEE6FC" p-id="17528"></path><path d="M243.8144 487.6288h48.7424v48.7424h-48.7424zM243.8144 341.3504h48.7424v48.7424h-48.7424z" fill="#012777" p-id="17529"></path><path d="M243.8144 292.5568h48.7424v48.7936h-48.7424z" fill="#375AA4" p-id="17530"></path><path d="M243.8144 243.8144h48.7424v48.7424h-48.7424z" fill="#A2D8EA" p-id="17531"></path><path d="M243.8144 195.072h48.7424v48.7424h-48.7424zM195.072 926.464h48.7424v48.7936H195.072z" fill="#012777" p-id="17532"></path><path d="M195.072 877.7216h48.7424v48.7424H195.072zM195.072 828.928h48.7424v48.7936H195.072zM195.072 780.1856h48.7424v48.7424H195.072z" fill="#DEE6FC" p-id="17533"></path><path d="M195.072 731.4432h48.7424v48.7424H195.072zM195.072 682.6496h48.7424v48.7936H195.072zM195.072 633.9072h48.7424v48.7424H195.072zM195.072 585.1648h48.7424v48.7424H195.072z" fill="#DEE6FC" p-id="17534"></path><path d="M195.072 536.3712h48.7424v48.7936H195.072zM195.072 390.0928h48.7424v48.7424H195.072z" fill="#012777" p-id="17535"></path><path d="M195.072 341.3504h48.7424v48.7424H195.072z" fill="#375AA4" p-id="17536"></path><path d="M195.072 292.5568h48.7424v48.7936H195.072z" fill="#A2D8EA" p-id="17537"></path><path d="M195.072 243.8144h48.7424v48.7424H195.072zM146.2784 877.7216h48.7936v48.7424h-48.7936zM146.2784 828.928h48.7936v48.7936h-48.7936zM146.2784 780.1856h48.7936v48.7424h-48.7936z" fill="#012777" p-id="17538"></path><path d="M146.2784 731.4432h48.7936v48.7424h-48.7936zM146.2784 682.6496h48.7936v48.7936h-48.7936zM146.2784 633.9072h48.7936v48.7424h-48.7936zM146.2784 585.1648h48.7936v48.7424h-48.7936zM146.2784 438.8352h48.7936v48.7936h-48.7936z" fill="#012777" p-id="17539"></path><path d="M146.2784 390.0928h48.7936v48.7424h-48.7936z" fill="#375AA4" p-id="17540"></path><path d="M146.2784 341.3504h48.7936v48.7424h-48.7936z" fill="#A2D8EA" p-id="17541"></path><path d="M146.2784 292.5568h48.7936v48.7936h-48.7936zM97.536 487.6288h48.7424v48.7424h-48.7424z" fill="#012777" p-id="17542"></path><path d="M97.536 438.8352h48.7424v48.7936h-48.7424z" fill="#375AA4" p-id="17543"></path><path d="M97.536 390.0928h48.7424v48.7424h-48.7424z" fill="#A2D8EA" p-id="17544"></path><path d="M97.536 341.3504h48.7424v48.7424h-48.7424zM48.7424 438.8352h48.7936v48.7936H48.7424zM48.7424 390.0928h48.7936v48.7424H48.7424z" fill="#012777" p-id="17545"></path></svg>