<?xml version="1.0" standalone="no"?><!DOCTYPE svg PUBLIC "-//W3C//DTD SVG 1.1//EN" "http://www.w3.org/Graphics/SVG/1.1/DTD/svg11.dtd"><svg t="1729842258079" class="icon" viewBox="0 0 1024 1024" version="1.1" xmlns="http://www.w3.org/2000/svg" p-id="17104" xmlns:xlink="http://www.w3.org/1999/xlink" width="200" height="200"><path d="M926.464 731.4432h48.7936v48.7424h-48.7936zM926.464 682.6496h48.7936v48.7936h-48.7936zM926.464 633.9072h48.7936v48.7424h-48.7936zM926.464 585.1648h48.7936v48.7424h-48.7936zM926.464 536.3712h48.7936v48.7936h-48.7936zM926.464 487.6288h48.7936v48.7424h-48.7936zM926.464 438.8352h48.7936v48.7936h-48.7936zM926.464 390.0928h48.7936v48.7424h-48.7936zM926.464 341.3504h48.7936v48.7424h-48.7936zM926.464 292.5568h48.7936v48.7936h-48.7936zM926.464 243.8144h48.7936v48.7424h-48.7936z" fill="#012777" p-id="17105"></path><path d="M926.464 195.072h48.7936v48.7424h-48.7936zM877.7216 780.1856h48.7424v48.7424h-48.7424z" fill="#012777" p-id="17106"></path><path d="M877.7216 731.4432h48.7424v48.7424h-48.7424zM877.7216 682.6496h48.7424v48.7936h-48.7424zM877.7216 633.9072h48.7424v48.7424h-48.7424zM877.7216 585.1648h48.7424v48.7424h-48.7424zM877.7216 536.3712h48.7424v48.7936h-48.7424zM877.7216 487.6288h48.7424v48.7424h-48.7424zM877.7216 438.8352h48.7424v48.7936h-48.7424zM877.7216 390.0928h48.7424v48.7424h-48.7424zM877.7216 341.3504h48.7424v48.7424h-48.7424zM877.7216 292.5568h48.7424v48.7936h-48.7424zM877.7216 243.8144h48.7424v48.7424h-48.7424z" fill="#DEE6FC" p-id="17107"></path><path d="M877.7216 195.072h48.7424v48.7424h-48.7424z" fill="#DEE6FC" p-id="17108"></path><path d="M877.7216 146.2784h48.7424v48.7936h-48.7424zM828.928 828.928h48.7936v48.7936h-48.7936z" fill="#012777" p-id="17109"></path><path d="M828.928 780.1856h48.7936v48.7424h-48.7936z" fill="#DEE6FC" p-id="17110"></path><path d="M828.928 731.4432h48.7936v48.7424h-48.7936z" fill="#DEE6FC" p-id="17111"></path><path d="M828.928 682.6496h48.7936v48.7936h-48.7936zM828.928 633.9072h48.7936v48.7424h-48.7936zM828.928 585.1648h48.7936v48.7424h-48.7936zM828.928 536.3712h48.7936v48.7936h-48.7936zM828.928 487.6288h48.7936v48.7424h-48.7936zM828.928 438.8352h48.7936v48.7936h-48.7936zM828.928 390.0928h48.7936v48.7424h-48.7936zM828.928 341.3504h48.7936v48.7424h-48.7936zM828.928 292.5568h48.7936v48.7936h-48.7936zM828.928 243.8144h48.7936v48.7424h-48.7936z" fill="#DD75A1" p-id="17112"></path><path d="M828.928 195.072h48.7936v48.7424h-48.7936zM828.928 146.2784h48.7936v48.7936h-48.7936z" fill="#DEE6FC" p-id="17113"></path><path d="M828.928 97.536h48.7936v48.7424h-48.7936zM780.1856 828.928h48.7424v48.7936h-48.7424z" fill="#012777" p-id="17114"></path><path d="M780.1856 780.1856h48.7424v48.7424h-48.7424z" fill="#DEE6FC" p-id="17115"></path><path d="M780.1856 731.4432h48.7424v48.7424h-48.7424zM780.1856 682.6496h48.7424v48.7936h-48.7424zM780.1856 633.9072h48.7424v48.7424h-48.7424zM780.1856 585.1648h48.7424v48.7424h-48.7424zM780.1856 536.3712h48.7424v48.7936h-48.7424zM780.1856 487.6288h48.7424v48.7424h-48.7424zM780.1856 438.8352h48.7424v48.7936h-48.7424zM780.1856 390.0928h48.7424v48.7424h-48.7424zM780.1856 341.3504h48.7424v48.7424h-48.7424zM780.1856 292.5568h48.7424v48.7936h-48.7424zM780.1856 243.8144h48.7424v48.7424h-48.7424z" fill="#DD75A1" p-id="17116"></path><path d="M780.1856 195.072h48.7424v48.7424h-48.7424z" fill="#DD75A1" p-id="17117"></path><path d="M780.1856 146.2784h48.7424v48.7936h-48.7424z" fill="#DEE6FC" p-id="17118"></path><path d="M780.1856 97.536h48.7424v48.7424h-48.7424zM731.4432 877.7216h48.7424v48.7424h-48.7424zM731.4432 828.928h48.7424v48.7936h-48.7424z" fill="#012777" p-id="17119"></path><path d="M731.4432 780.1856h48.7424v48.7424h-48.7424z" fill="#DEE6FC" p-id="17120"></path><path d="M731.4432 731.4432h48.7424v48.7424h-48.7424zM731.4432 682.6496h48.7424v48.7936h-48.7424zM731.4432 633.9072h48.7424v48.7424h-48.7424zM731.4432 585.1648h48.7424v48.7424h-48.7424zM731.4432 536.3712h48.7424v48.7936h-48.7424zM731.4432 487.6288h48.7424v48.7424h-48.7424zM731.4432 438.8352h48.7424v48.7936h-48.7424zM731.4432 390.0928h48.7424v48.7424h-48.7424zM731.4432 341.3504h48.7424v48.7424h-48.7424zM731.4432 292.5568h48.7424v48.7936h-48.7424zM731.4432 243.8144h48.7424v48.7424h-48.7424z" fill="#DD75A1" p-id="17121"></path><path d="M731.4432 195.072h48.7424v48.7424h-48.7424z" fill="#DD75A1" p-id="17122"></path><path d="M731.4432 146.2784h48.7424v48.7936h-48.7424z" fill="#DEE6FC" p-id="17123"></path><path d="M731.4432 97.536h48.7424v48.7424h-48.7424zM682.6496 926.464h48.7936v48.7936h-48.7936z" fill="#012777" p-id="17124"></path><path d="M682.6496 877.7216h48.7936v48.7424h-48.7936z" fill="#375AA4" p-id="17125"></path><path d="M682.6496 828.928h48.7936v48.7936h-48.7936z" fill="#012777" p-id="17126"></path><path d="M682.6496 780.1856h48.7936v48.7424h-48.7936z" fill="#DEE6FC" p-id="17127"></path><path d="M682.6496 731.4432h48.7936v48.7424h-48.7936z" fill="#DD75A1" p-id="17128"></path><path d="M682.6496 682.6496h48.7936v48.7936h-48.7936z" fill="#375AA4" p-id="17129"></path><path d="M682.6496 633.9072h48.7936v48.7424h-48.7936zM682.6496 585.1648h48.7936v48.7424h-48.7936zM682.6496 536.3712h48.7936v48.7936h-48.7936zM682.6496 487.6288h48.7936v48.7424h-48.7936zM682.6496 438.8352h48.7936v48.7936h-48.7936zM682.6496 390.0928h48.7936v48.7424h-48.7936zM682.6496 341.3504h48.7936v48.7424h-48.7936zM682.6496 292.5568h48.7936v48.7936h-48.7936zM682.6496 243.8144h48.7936v48.7424h-48.7936z" fill="#DD75A1" p-id="17130"></path><path d="M682.6496 195.072h48.7936v48.7424h-48.7936z" fill="#DD75A1" p-id="17131"></path><path d="M682.6496 146.2784h48.7936v48.7936h-48.7936z" fill="#DEE6FC" p-id="17132"></path><path d="M682.6496 97.536h48.7936v48.7424h-48.7936zM633.9072 926.464h48.7424v48.7936h-48.7424z" fill="#012777" p-id="17133"></path><path d="M633.9072 877.7216h48.7424v48.7424h-48.7424z" fill="#375AA4" p-id="17134"></path><path d="M633.9072 828.928h48.7424v48.7936h-48.7424z" fill="#012777" p-id="17135"></path><path d="M633.9072 780.1856h48.7424v48.7424h-48.7424z" fill="#DEE6FC" p-id="17136"></path><path d="M633.9072 731.4432h48.7424v48.7424h-48.7424z" fill="#DD75A1" p-id="17137"></path><path d="M633.9072 682.6496h48.7424v48.7936h-48.7424z" fill="#375AA4" p-id="17138"></path><path d="M633.9072 633.9072h48.7424v48.7424h-48.7424z" fill="#DD75A1" p-id="17139"></path><path d="M633.9072 585.1648h48.7424v48.7424h-48.7424z" fill="#375AA4" p-id="17140"></path><path d="M633.9072 536.3712h48.7424v48.7936h-48.7424zM633.9072 487.6288h48.7424v48.7424h-48.7424zM633.9072 438.8352h48.7424v48.7936h-48.7424zM633.9072 390.0928h48.7424v48.7424h-48.7424zM633.9072 341.3504h48.7424v48.7424h-48.7424zM633.9072 292.5568h48.7424v48.7936h-48.7424zM633.9072 243.8144h48.7424v48.7424h-48.7424z" fill="#DD75A1" p-id="17141"></path><path d="M633.9072 195.072h48.7424v48.7424h-48.7424z" fill="#DD75A1" p-id="17142"></path><path d="M633.9072 146.2784h48.7424v48.7936h-48.7424z" fill="#DEE6FC" p-id="17143"></path><path d="M633.9072 97.536h48.7424v48.7424h-48.7424zM585.1648 926.464h48.7424v48.7936h-48.7424z" fill="#012777" p-id="17144"></path><path d="M585.1648 877.7216h48.7424v48.7424h-48.7424z" fill="#375AA4" p-id="17145"></path><path d="M585.1648 828.928h48.7424v48.7936h-48.7424z" fill="#012777" p-id="17146"></path><path d="M585.1648 780.1856h48.7424v48.7424h-48.7424z" fill="#DEE6FC" p-id="17147"></path><path d="M585.1648 731.4432h48.7424v48.7424h-48.7424z" fill="#DD75A1" p-id="17148"></path><path d="M585.1648 682.6496h48.7424v48.7936h-48.7424z" fill="#375AA4" p-id="17149"></path><path d="M585.1648 633.9072h48.7424v48.7424h-48.7424z" fill="#DD75A1" p-id="17150"></path><path d="M585.1648 585.1648h48.7424v48.7424h-48.7424z" fill="#375AA4" p-id="17151"></path><path d="M585.1648 536.3712h48.7424v48.7936h-48.7424z" fill="#DD75A1" p-id="17152"></path><path d="M585.1648 487.6288h48.7424v48.7424h-48.7424z" fill="#375AA4" p-id="17153"></path><path d="M585.1648 438.8352h48.7424v48.7936h-48.7424zM585.1648 390.0928h48.7424v48.7424h-48.7424z" fill="#DD75A1" p-id="17154"></path><path d="M585.1648 341.3504h48.7424v48.7424h-48.7424zM585.1648 292.5568h48.7424v48.7936h-48.7424zM585.1648 243.8144h48.7424v48.7424h-48.7424z" fill="#012777" p-id="17155"></path><path d="M585.1648 195.072h48.7424v48.7424h-48.7424z" fill="#DD75A1" p-id="17156"></path><path d="M585.1648 146.2784h48.7424v48.7936h-48.7424z" fill="#DEE6FC" p-id="17157"></path><path d="M585.1648 97.536h48.7424v48.7424h-48.7424zM536.3712 926.464h48.7936v48.7936h-48.7936z" fill="#012777" p-id="17158"></path><path d="M536.3712 877.7216h48.7936v48.7424h-48.7936z" fill="#375AA4" p-id="17159"></path><path d="M536.3712 828.928h48.7936v48.7936h-48.7936z" fill="#012777" p-id="17160"></path><path d="M536.3712 780.1856h48.7936v48.7424h-48.7936z" fill="#DEE6FC" p-id="17161"></path><path d="M536.3712 731.4432h48.7936v48.7424h-48.7936z" fill="#DD75A1" p-id="17162"></path><path d="M536.3712 682.6496h48.7936v48.7936h-48.7936z" fill="#375AA4" p-id="17163"></path><path d="M536.3712 633.9072h48.7936v48.7424h-48.7936z" fill="#DD75A1" p-id="17164"></path><path d="M536.3712 585.1648h48.7936v48.7424h-48.7936z" fill="#375AA4" p-id="17165"></path><path d="M536.3712 536.3712h48.7936v48.7936h-48.7936z" fill="#DD75A1" p-id="17166"></path><path d="M536.3712 487.6288h48.7936v48.7424h-48.7936z" fill="#375AA4" p-id="17167"></path><path d="M536.3712 438.8352h48.7936v48.7936h-48.7936z" fill="#DD75A1" p-id="17168"></path><path d="M536.3712 390.0928h48.7936v48.7424h-48.7936z" fill="#012777" p-id="17169"></path><path d="M536.3712 341.3504h48.7936v48.7424h-48.7936zM536.3712 292.5568h48.7936v48.7936h-48.7936zM536.3712 243.8144h48.7936v48.7424h-48.7936z" fill="#375AA4" p-id="17170"></path><path d="M536.3712 195.072h48.7936v48.7424h-48.7936z" fill="#012777" p-id="17171"></path><path d="M536.3712 146.2784h48.7936v48.7936h-48.7936z" fill="#DEE6FC" p-id="17172"></path><path d="M536.3712 97.536h48.7936v48.7424h-48.7936zM487.6288 926.464h48.7424v48.7936h-48.7424z" fill="#012777" p-id="17173"></path><path d="M487.6288 877.7216h48.7424v48.7424h-48.7424z" fill="#375AA4" p-id="17174"></path><path d="M487.6288 828.928h48.7424v48.7936h-48.7424z" fill="#012777" p-id="17175"></path><path d="M487.6288 780.1856h48.7424v48.7424h-48.7424z" fill="#DEE6FC" p-id="17176"></path><path d="M487.6288 731.4432h48.7424v48.7424h-48.7424z" fill="#DD75A1" p-id="17177"></path><path d="M487.6288 682.6496h48.7424v48.7936h-48.7424z" fill="#375AA4" p-id="17178"></path><path d="M487.6288 633.9072h48.7424v48.7424h-48.7424z" fill="#DD75A1" p-id="17179"></path><path d="M487.6288 585.1648h48.7424v48.7424h-48.7424z" fill="#375AA4" p-id="17180"></path><path d="M487.6288 536.3712h48.7424v48.7936h-48.7424z" fill="#DD75A1" p-id="17181"></path><path d="M487.6288 487.6288h48.7424v48.7424h-48.7424z" fill="#375AA4" p-id="17182"></path><path d="M487.6288 438.8352h48.7424v48.7936h-48.7424z" fill="#DD75A1" p-id="17183"></path><path d="M487.6288 390.0928h48.7424v48.7424h-48.7424z" fill="#012777" p-id="17184"></path><path d="M487.6288 341.3504h48.7424v48.7424h-48.7424zM487.6288 292.5568h48.7424v48.7936h-48.7424z" fill="#375AA4" p-id="17185"></path><path d="M487.6288 243.8144h48.7424v48.7424h-48.7424z" fill="#A2D8EA" p-id="17186"></path><path d="M487.6288 195.072h48.7424v48.7424h-48.7424z" fill="#012777" p-id="17187"></path><path d="M487.6288 146.2784h48.7424v48.7936h-48.7424z" fill="#DEE6FC" p-id="17188"></path><path d="M487.6288 97.536h48.7424v48.7424h-48.7424zM438.8352 926.464h48.7936v48.7936h-48.7936z" fill="#012777" p-id="17189"></path><path d="M438.8352 877.7216h48.7936v48.7424h-48.7936z" fill="#A2D8EA" p-id="17190"></path><path d="M438.8352 828.928h48.7936v48.7936h-48.7936z" fill="#012777" p-id="17191"></path><path d="M438.8352 780.1856h48.7936v48.7424h-48.7936z" fill="#DEE6FC" p-id="17192"></path><path d="M438.8352 731.4432h48.7936v48.7424h-48.7936z" fill="#DD75A1" p-id="17193"></path><path d="M438.8352 682.6496h48.7936v48.7936h-48.7936z" fill="#375AA4" p-id="17194"></path><path d="M438.8352 633.9072h48.7936v48.7424h-48.7936z" fill="#DD75A1" p-id="17195"></path><path d="M438.8352 585.1648h48.7936v48.7424h-48.7936z" fill="#375AA4" p-id="17196"></path><path d="M438.8352 536.3712h48.7936v48.7936h-48.7936z" fill="#DD75A1" p-id="17197"></path><path d="M438.8352 487.6288h48.7936v48.7424h-48.7936z" fill="#375AA4" p-id="17198"></path><path d="M438.8352 438.8352h48.7936v48.7936h-48.7936z" fill="#DD75A1" p-id="17199"></path><path d="M438.8352 390.0928h48.7936v48.7424h-48.7936z" fill="#012777" p-id="17200"></path><path d="M438.8352 341.3504h48.7936v48.7424h-48.7936z" fill="#375AA4" p-id="17201"></path><path d="M438.8352 292.5568h48.7936v48.7936h-48.7936zM438.8352 243.8144h48.7936v48.7424h-48.7936z" fill="#A2D8EA" p-id="17202"></path><path d="M438.8352 195.072h48.7936v48.7424h-48.7936z" fill="#012777" p-id="17203"></path><path d="M438.8352 146.2784h48.7936v48.7936h-48.7936z" fill="#DEE6FC" p-id="17204"></path><path d="M438.8352 97.536h48.7936v48.7424h-48.7936zM390.0928 926.464h48.7424v48.7936h-48.7424z" fill="#012777" p-id="17205"></path><path d="M390.0928 877.7216h48.7424v48.7424h-48.7424z" fill="#A2D8EA" p-id="17206"></path><path d="M390.0928 828.928h48.7424v48.7936h-48.7424z" fill="#012777" p-id="17207"></path><path d="M390.0928 780.1856h48.7424v48.7424h-48.7424z" fill="#DEE6FC" p-id="17208"></path><path d="M390.0928 731.4432h48.7424v48.7424h-48.7424z" fill="#DD75A1" p-id="17209"></path><path d="M390.0928 682.6496h48.7424v48.7936h-48.7424z" fill="#A2D8EA" p-id="17210"></path><path d="M390.0928 633.9072h48.7424v48.7424h-48.7424z" fill="#DD75A1" p-id="17211"></path><path d="M390.0928 585.1648h48.7424v48.7424h-48.7424z" fill="#A2D8EA" p-id="17212"></path><path d="M390.0928 536.3712h48.7424v48.7936h-48.7424z" fill="#DD75A1" p-id="17213"></path><path d="M390.0928 487.6288h48.7424v48.7424h-48.7424z" fill="#A2D8EA" p-id="17214"></path><path d="M390.0928 438.8352h48.7424v48.7936h-48.7424zM390.0928 390.0928h48.7424v48.7424h-48.7424z" fill="#DD75A1" p-id="17215"></path><path d="M390.0928 341.3504h48.7424v48.7424h-48.7424zM390.0928 292.5568h48.7424v48.7936h-48.7424zM390.0928 243.8144h48.7424v48.7424h-48.7424z" fill="#012777" p-id="17216"></path><path d="M390.0928 195.072h48.7424v48.7424h-48.7424z" fill="#DD75A1" p-id="17217"></path><path d="M390.0928 146.2784h48.7424v48.7936h-48.7424z" fill="#DEE6FC" p-id="17218"></path><path d="M390.0928 97.536h48.7424v48.7424h-48.7424zM341.3504 926.464h48.7424v48.7936h-48.7424z" fill="#012777" p-id="17219"></path><path d="M341.3504 877.7216h48.7424v48.7424h-48.7424z" fill="#A2D8EA" p-id="17220"></path><path d="M341.3504 828.928h48.7424v48.7936h-48.7424z" fill="#012777" p-id="17221"></path><path d="M341.3504 780.1856h48.7424v48.7424h-48.7424z" fill="#DEE6FC" p-id="17222"></path><path d="M341.3504 731.4432h48.7424v48.7424h-48.7424zM341.3504 682.6496h48.7424v48.7936h-48.7424zM341.3504 633.9072h48.7424v48.7424h-48.7424zM341.3504 585.1648h48.7424v48.7424h-48.7424zM341.3504 536.3712h48.7424v48.7936h-48.7424zM341.3504 487.6288h48.7424v48.7424h-48.7424zM341.3504 438.8352h48.7424v48.7936h-48.7424zM341.3504 390.0928h48.7424v48.7424h-48.7424zM341.3504 341.3504h48.7424v48.7424h-48.7424zM341.3504 292.5568h48.7424v48.7936h-48.7424zM341.3504 243.8144h48.7424v48.7424h-48.7424z" fill="#DD75A1" p-id="17223"></path><path d="M341.3504 195.072h48.7424v48.7424h-48.7424z" fill="#DD75A1" p-id="17224"></path><path d="M341.3504 146.2784h48.7424v48.7936h-48.7424z" fill="#DEE6FC" p-id="17225"></path><path d="M341.3504 97.536h48.7424v48.7424h-48.7424zM292.5568 926.464h48.7936v48.7936h-48.7936z" fill="#012777" p-id="17226"></path><path d="M292.5568 877.7216h48.7936v48.7424h-48.7936z" fill="#A2D8EA" p-id="17227"></path><path d="M292.5568 828.928h48.7936v48.7936h-48.7936z" fill="#012777" p-id="17228"></path><path d="M292.5568 780.1856h48.7936v48.7424h-48.7936z" fill="#DEE6FC" p-id="17229"></path><path d="M292.5568 731.4432h48.7936v48.7424h-48.7936zM292.5568 682.6496h48.7936v48.7936h-48.7936zM292.5568 633.9072h48.7936v48.7424h-48.7936zM292.5568 585.1648h48.7936v48.7424h-48.7936zM292.5568 536.3712h48.7936v48.7936h-48.7936zM292.5568 487.6288h48.7936v48.7424h-48.7936zM292.5568 438.8352h48.7936v48.7936h-48.7936zM292.5568 390.0928h48.7936v48.7424h-48.7936zM292.5568 341.3504h48.7936v48.7424h-48.7936zM292.5568 292.5568h48.7936v48.7936h-48.7936zM292.5568 243.8144h48.7936v48.7424h-48.7936z" fill="#DEE6FC" p-id="17230"></path><path d="M292.5568 195.072h48.7936v48.7424h-48.7936zM292.5568 146.2784h48.7936v48.7936h-48.7936z" fill="#DEE6FC" p-id="17231"></path><path d="M292.5568 97.536h48.7936v48.7424h-48.7936zM243.8144 926.464h48.7424v48.7936h-48.7424z" fill="#012777" p-id="17232"></path><path d="M243.8144 877.7216h48.7424v48.7424h-48.7424z" fill="#A2D8EA" p-id="17233"></path><path d="M243.8144 828.928h48.7424v48.7936h-48.7424zM243.8144 780.1856h48.7424v48.7424h-48.7424z" fill="#012777" p-id="17234"></path><path d="M243.8144 731.4432h48.7424v48.7424h-48.7424zM243.8144 682.6496h48.7424v48.7936h-48.7424zM243.8144 633.9072h48.7424v48.7424h-48.7424zM243.8144 585.1648h48.7424v48.7424h-48.7424zM243.8144 536.3712h48.7424v48.7936h-48.7424zM243.8144 487.6288h48.7424v48.7424h-48.7424zM243.8144 438.8352h48.7424v48.7936h-48.7424zM243.8144 390.0928h48.7424v48.7424h-48.7424zM243.8144 341.3504h48.7424v48.7424h-48.7424zM243.8144 292.5568h48.7424v48.7936h-48.7424zM243.8144 243.8144h48.7424v48.7424h-48.7424z" fill="#012777" p-id="17235"></path><path d="M243.8144 195.072h48.7424v48.7424h-48.7424zM243.8144 146.2784h48.7424v48.7936h-48.7424zM243.8144 97.536h48.7424v48.7424h-48.7424zM195.072 877.7216h48.7424v48.7424H195.072z" fill="#012777" p-id="17236"></path><path d="M195.072 828.928h48.7424v48.7936H195.072z" fill="#A2D8EA" p-id="17237"></path><path d="M195.072 780.1856h48.7424v48.7424H195.072z" fill="#012777" p-id="17238"></path><path d="M195.072 731.4432h48.7424v48.7424H195.072zM195.072 682.6496h48.7424v48.7936H195.072zM195.072 633.9072h48.7424v48.7424H195.072zM195.072 585.1648h48.7424v48.7424H195.072zM195.072 536.3712h48.7424v48.7936H195.072zM195.072 487.6288h48.7424v48.7424H195.072zM195.072 438.8352h48.7424v48.7936H195.072zM195.072 390.0928h48.7424v48.7424H195.072zM195.072 341.3504h48.7424v48.7424H195.072zM195.072 292.5568h48.7424v48.7936H195.072zM195.072 243.8144h48.7424v48.7424H195.072z" fill="#DEE6FC" p-id="17239"></path><path d="M195.072 195.072h48.7424v48.7424H195.072zM195.072 146.2784h48.7424v48.7936H195.072zM195.072 97.536h48.7424v48.7424H195.072z" fill="#DEE6FC" p-id="17240"></path><path d="M195.072 48.7424h48.7424v48.7936H195.072zM146.2784 926.464h48.7936v48.7936h-48.7936z" fill="#012777" p-id="17241"></path><path d="M146.2784 877.7216h48.7936v48.7424h-48.7936zM146.2784 828.928h48.7936v48.7936h-48.7936zM146.2784 780.1856h48.7936v48.7424h-48.7936z" fill="#A2D8EA" p-id="17242"></path><path d="M146.2784 731.4432h48.7936v48.7424h-48.7936z" fill="#012777" p-id="17243"></path><path d="M146.2784 682.6496h48.7936v48.7936h-48.7936z" fill="#DEE6FC" p-id="17244"></path><path d="M146.2784 633.9072h48.7936v48.7424h-48.7936zM146.2784 585.1648h48.7936v48.7424h-48.7936zM146.2784 536.3712h48.7936v48.7936h-48.7936zM146.2784 487.6288h48.7936v48.7424h-48.7936zM146.2784 438.8352h48.7936v48.7936h-48.7936zM146.2784 390.0928h48.7936v48.7424h-48.7936zM146.2784 341.3504h48.7936v48.7424h-48.7936zM146.2784 292.5568h48.7936v48.7936h-48.7936zM146.2784 243.8144h48.7936v48.7424h-48.7936z" fill="#DD75A1" p-id="17245"></path><path d="M146.2784 195.072h48.7936v48.7424h-48.7936zM146.2784 146.2784h48.7936v48.7936h-48.7936z" fill="#DD75A1" p-id="17246"></path><path d="M146.2784 97.536h48.7936v48.7424h-48.7936z" fill="#DEE6FC" p-id="17247"></path><path d="M146.2784 48.7424h48.7936v48.7936h-48.7936zM97.536 877.7216h48.7424v48.7424h-48.7424z" fill="#012777" p-id="17248"></path><path d="M97.536 828.928h48.7424v48.7936h-48.7424z" fill="#A2D8EA" p-id="17249"></path><path d="M97.536 780.1856h48.7424v48.7424h-48.7424z" fill="#012777" p-id="17250"></path><path d="M97.536 731.4432h48.7424v48.7424h-48.7424zM97.536 682.6496h48.7424v48.7936h-48.7424zM97.536 633.9072h48.7424v48.7424h-48.7424zM97.536 585.1648h48.7424v48.7424h-48.7424zM97.536 536.3712h48.7424v48.7936h-48.7424zM97.536 487.6288h48.7424v48.7424h-48.7424zM97.536 438.8352h48.7424v48.7936h-48.7424zM97.536 390.0928h48.7424v48.7424h-48.7424zM97.536 341.3504h48.7424v48.7424h-48.7424zM97.536 292.5568h48.7424v48.7936h-48.7424zM97.536 243.8144h48.7424v48.7424h-48.7424z" fill="#DEE6FC" p-id="17251"></path><path d="M97.536 195.072h48.7424v48.7424h-48.7424zM97.536 146.2784h48.7424v48.7936h-48.7424zM97.536 97.536h48.7424v48.7424h-48.7424z" fill="#DEE6FC" p-id="17252"></path><path d="M97.536 48.7424h48.7424v48.7936h-48.7424zM48.7424 828.928h48.7936v48.7936H48.7424zM48.7424 780.1856h48.7936v48.7424H48.7424z" fill="#012777" p-id="17253"></path><path d="M48.7424 731.4432h48.7936v48.7424H48.7424zM48.7424 682.6496h48.7936v48.7936H48.7424zM48.7424 633.9072h48.7936v48.7424H48.7424zM48.7424 585.1648h48.7936v48.7424H48.7424zM48.7424 536.3712h48.7936v48.7936H48.7424zM48.7424 487.6288h48.7936v48.7424H48.7424zM48.7424 438.8352h48.7936v48.7936H48.7424zM48.7424 390.0928h48.7936v48.7424H48.7424zM48.7424 341.3504h48.7936v48.7424H48.7424zM48.7424 292.5568h48.7936v48.7936H48.7424zM48.7424 243.8144h48.7936v48.7424H48.7424z" fill="#012777" p-id="17254"></path><path d="M48.7424 195.072h48.7936v48.7424H48.7424zM48.7424 146.2784h48.7936v48.7936H48.7424zM48.7424 97.536h48.7936v48.7424H48.7424z" fill="#012777" p-id="17255"></path></svg>