<?xml version="1.0" standalone="no"?><!DOCTYPE svg PUBLIC "-//W3C//DTD SVG 1.1//EN" "http://www.w3.org/Graphics/SVG/1.1/DTD/svg11.dtd"><svg t="1733327959630" class="icon" viewBox="0 0 1024 1024" version="1.1" xmlns="http://www.w3.org/2000/svg" p-id="19693" xmlns:xlink="http://www.w3.org/1999/xlink" width="200" height="200"><path d="M427.52 85.3248h168.96c23.6544 0 42.24-18.7648 42.24-42.6496C638.72 18.7648 620.1344 0 596.48 0h-168.96c-23.6544 0-42.24 18.7648-42.24 42.6752 0 23.8848 18.5856 42.6496 42.24 42.6496zM799.232 1024H934.4l-126.72-135.68c48.9984-17.92 84.48-64.8448 84.48-120.32V256c0-70.8352-57.4464-128-126.72-128H258.56c-70.1184 0-126.72 58.0352-126.72 128v512c0 55.4752 35.4816 103.2448 84.48 120.32L89.6 1024h135.168l119.9616-128h334.5408l119.9616 128zM228.992 332.8c0-46.9248 38.016-85.3248 84.48-85.3248h397.056c46.464 0 84.48 38.4 84.48 85.3248v145.0752c0 46.9248-38.016 85.3248-84.48 85.3248H313.472c-46.464 0-84.48-38.4-84.48-85.3248V332.8zM326.144 802.1248c-37.1712 0-67.584-30.72-67.584-68.2496C258.56 696.32 288.9728 665.6 326.144 665.6c37.1712 0 67.584 30.72 67.584 68.2752 0 37.5296-30.4128 68.2496-67.584 68.2496z m304.128-68.2496C630.272 696.32 660.6848 665.6 697.856 665.6c37.1712 0 67.584 30.72 67.584 68.2752 0 37.5296-30.4128 68.2496-67.584 68.2496-37.1712 0-67.584-30.72-67.584-68.2496z" fill="#000000" p-id="19694"></path></svg>